<svg width="111" height="28" viewBox="0 0 111 28" fill="none" xmlns="http://www.w3.org/2000/svg">
<path d="M8.87856 28.0001C6.72183 28.0001 4.84666 27.4843 3.25308 26.4526C1.65949 25.421 0.57513 24.0313 0 22.2836L3.95402 20.3902C4.45725 21.4582 5.14022 22.2957 6.00291 22.9025C6.86561 23.5094 7.82416 23.8128 8.87856 23.8128C9.6454 23.8128 10.2325 23.655 10.6399 23.3395C11.0473 23.0239 11.251 22.587 11.251 22.0287C11.251 21.7374 11.1791 21.4886 11.0353 21.2823C10.8915 21.0759 10.6758 20.8878 10.3883 20.7179C10.1007 20.548 9.74126 20.4023 9.30991 20.281L5.96697 19.3343C4.3614 18.8731 3.12727 18.1266 2.26457 17.095C1.40188 16.0634 0.970531 14.8436 0.970531 13.4357C0.970531 12.1977 1.28206 11.1175 1.90512 10.1951C2.52817 9.27272 3.40285 8.55057 4.52914 8.02868C5.65544 7.50679 6.94948 7.24585 8.41127 7.24585C10.3284 7.24585 12.0118 7.70099 13.4616 8.61126C14.9114 9.52153 15.9359 10.802 16.535 12.4526L12.545 14.346C12.2574 13.5207 11.7362 12.8592 10.9814 12.3616C10.2265 11.864 9.36982 11.6152 8.41127 11.6152C7.71632 11.6152 7.17115 11.7608 6.77574 12.0521C6.38034 12.3434 6.18264 12.7439 6.18264 13.2537C6.18264 13.5207 6.25453 13.7634 6.39832 13.9819C6.5421 14.2003 6.77574 14.3945 7.09926 14.5644C7.42277 14.7344 7.82416 14.8921 8.30343 15.0378L11.4307 15.9845C13.0602 16.47 14.3063 17.2042 15.169 18.1873C16.0317 19.1704 16.4631 20.3781 16.4631 21.8102C16.4631 23.0482 16.1456 24.1284 15.5105 25.0508C14.8755 25.9732 13.9948 26.6954 12.8685 27.2172C11.7422 27.7391 10.4122 28.0001 8.87856 28.0001Z" fill="#13183F"/>
<path d="M19.6982 27.5631V0H25.0901V17.6593L23.0771 17.0039L31.74 7.6827H38.39L31.2727 15.6931L38.354 27.5631H32.2433L26.3122 17.4772L29.4395 16.6762L23.4366 23.303L25.0901 20.1352V27.5631H19.6982Z" fill="#13183F"/>
<path fill-rule="evenodd" clip-rule="evenodd" d="M40.7622 0.436768V5.89841H46.154V0.436768H40.7622ZM40.7622 7.68265V27.563H46.154V7.68265H40.7622Z" fill="#13183F"/>
<path d="M50.1082 27.5631V0H55.5V27.5631H50.1082Z" fill="#13183F"/>
<path d="M59.4539 27.5631V0H64.8457V27.5631H59.4539Z" fill="#13183F"/>
<path d="M78.2535 28.0001C76.1687 28.0001 74.3594 27.5328 72.8257 26.5983C71.2921 25.6637 70.1059 24.4075 69.2671 22.8297C68.4284 21.2519 68.009 19.5042 68.009 17.5866C68.009 15.5961 68.4464 13.8241 69.321 12.2706C70.1957 10.717 71.3759 9.49119 72.8617 8.59305C74.3474 7.69492 76.0249 7.24585 77.8941 7.24585C79.4517 7.24585 80.8296 7.49466 82.0278 7.99227C83.226 8.48989 84.2385 9.18777 85.0652 10.0859C85.892 10.984 86.521 12.0217 86.9524 13.199C87.3837 14.3763 87.5994 15.6568 87.5994 17.0404C87.5994 17.4288 87.5814 17.8111 87.5455 18.1873C87.5095 18.5636 87.4436 18.8852 87.3478 19.1522H72.646V15.147H84.2924L81.7403 17.0404C81.9799 15.9966 81.9679 15.0681 81.7043 14.255C81.4407 13.4418 80.9794 12.7985 80.3204 12.3252C79.6614 11.8518 78.8526 11.6152 77.8941 11.6152C76.9595 11.6152 76.1567 11.8458 75.4857 12.307C74.8147 12.7682 74.3115 13.4478 73.976 14.346C73.6405 15.2441 73.5087 16.3364 73.5806 17.623C73.4847 18.7396 73.6165 19.7227 73.976 20.5722C74.3355 21.4218 74.8866 22.0833 75.6295 22.5566C76.3724 23.03 77.271 23.2667 78.3254 23.2667C79.284 23.2667 80.1047 23.0725 80.7877 22.6841C81.4707 22.2957 82.0039 21.7617 82.3873 21.082L86.7007 23.1574C86.3173 24.1284 85.7122 24.978 84.8855 25.7062C84.0587 26.4344 83.0822 26.9988 81.9559 27.3993C80.8296 27.7998 79.5955 28.0001 78.2535 28.0001Z" fill="#13183F"/>
<path fill-rule="evenodd" clip-rule="evenodd" d="M94.8603 26.6164C96.37 27.5388 98.0834 28 100.001 28C101.342 28 102.589 27.7512 103.739 27.2536C104.623 26.8709 105.366 26.3482 105.967 25.6856V27.5631H111V0H105.608V9.35192C105.094 8.83528 104.489 8.40631 103.793 8.06502C102.678 7.51886 101.402 7.24577 99.9646 7.24577C98.0954 7.24577 96.4059 7.70698 94.8962 8.62939C93.3865 9.5518 92.1883 10.7958 91.3017 12.3615C90.415 13.9272 89.9717 15.681 89.9717 17.6229C89.9717 19.5405 90.409 21.2883 91.2837 22.8661C92.1584 24.4439 93.3506 25.694 94.8603 26.6164ZM103.236 22.3926C102.493 22.8538 101.63 23.0844 100.648 23.0844C99.6651 23.0844 98.7845 22.8538 98.0057 22.3926C97.2268 21.9314 96.6218 21.2881 96.1904 20.4628C95.7591 19.6375 95.5434 18.6908 95.5434 17.6228C95.5434 16.5547 95.7591 15.6141 96.1904 14.8009C96.6218 13.9877 97.2268 13.3445 98.0057 12.8711C98.7845 12.3978 99.6651 12.1611 100.648 12.1611C101.63 12.1611 102.493 12.3917 103.236 12.8529C103.979 13.3141 104.56 13.9574 104.979 14.7827C105.398 15.608 105.608 16.5547 105.608 17.6228C105.608 18.6908 105.398 19.6375 104.979 20.4628C104.56 21.2881 103.979 21.9314 103.236 22.3926Z" fill="#13183F"/>
</svg>
